<mxfile host="app.diagrams.net" agent="Mozilla/5.0 (Windows NT 10.0; Win64; x64) AppleWebKit/537.36 (KHTML, like Gecko) Chrome/133.0.0.0 Safari/537.36" version="26.1.0">
  <diagram name="Strona-1" id="dwRL1UbHHaDOFb6Yypss">
    <mxGraphModel dx="712" dy="1229" grid="0" gridSize="10" guides="1" tooltips="1" connect="1" arrows="1" fold="1" page="0" pageScale="1" pageWidth="827" pageHeight="1169" math="0" shadow="0">
      <root>
        <mxCell id="0" />
        <mxCell id="1" parent="0" />
        <mxCell id="9hhr9WXu9GJ2DhduBU7l-4" value="System Zarządzania Przesyłkami" style="html=1;whiteSpace=wrap;" vertex="1" parent="1">
          <mxGeometry x="132" y="17" width="363" height="221" as="geometry" />
        </mxCell>
        <mxCell id="9hhr9WXu9GJ2DhduBU7l-6" value="" style="edgeStyle=none;curved=1;rounded=0;orthogonalLoop=1;jettySize=auto;html=1;fontSize=12;startSize=8;endSize=8;" edge="1" parent="1" source="9hhr9WXu9GJ2DhduBU7l-5" target="9hhr9WXu9GJ2DhduBU7l-4">
          <mxGeometry relative="1" as="geometry" />
        </mxCell>
        <mxCell id="9hhr9WXu9GJ2DhduBU7l-5" value="Klient&lt;div&gt;&lt;br&gt;&lt;/div&gt;" style="shape=umlActor;verticalLabelPosition=bottom;verticalAlign=top;html=1;" vertex="1" parent="1">
          <mxGeometry x="9" y="17" width="30" height="60" as="geometry" />
        </mxCell>
        <mxCell id="9hhr9WXu9GJ2DhduBU7l-8" value="" style="edgeStyle=none;curved=1;rounded=0;orthogonalLoop=1;jettySize=auto;html=1;fontSize=12;startSize=8;endSize=8;" edge="1" parent="1" source="9hhr9WXu9GJ2DhduBU7l-7" target="9hhr9WXu9GJ2DhduBU7l-4">
          <mxGeometry relative="1" as="geometry" />
        </mxCell>
        <mxCell id="9hhr9WXu9GJ2DhduBU7l-7" value="Kurier" style="shape=umlActor;verticalLabelPosition=bottom;verticalAlign=top;html=1;" vertex="1" parent="1">
          <mxGeometry x="9" y="178" width="30" height="60" as="geometry" />
        </mxCell>
        <mxCell id="9hhr9WXu9GJ2DhduBU7l-15" value="" style="edgeStyle=none;curved=1;rounded=0;orthogonalLoop=1;jettySize=auto;html=1;fontSize=12;startSize=8;endSize=8;" edge="1" parent="1" source="9hhr9WXu9GJ2DhduBU7l-14" target="9hhr9WXu9GJ2DhduBU7l-4">
          <mxGeometry relative="1" as="geometry" />
        </mxCell>
        <mxCell id="9hhr9WXu9GJ2DhduBU7l-14" value="Automat paczkowy" style="shape=umlActor;verticalLabelPosition=bottom;verticalAlign=top;html=1;" vertex="1" parent="1">
          <mxGeometry x="298.5" y="299" width="30" height="60" as="geometry" />
        </mxCell>
        <mxCell id="9hhr9WXu9GJ2DhduBU7l-17" value="" style="edgeStyle=none;curved=1;rounded=0;orthogonalLoop=1;jettySize=auto;html=1;fontSize=12;startSize=8;endSize=8;" edge="1" parent="1" source="9hhr9WXu9GJ2DhduBU7l-16" target="9hhr9WXu9GJ2DhduBU7l-4">
          <mxGeometry relative="1" as="geometry" />
        </mxCell>
        <mxCell id="9hhr9WXu9GJ2DhduBU7l-16" value="System BLIK" style="shape=umlActor;verticalLabelPosition=bottom;verticalAlign=top;html=1;" vertex="1" parent="1">
          <mxGeometry x="588" y="6" width="30" height="60" as="geometry" />
        </mxCell>
        <mxCell id="9hhr9WXu9GJ2DhduBU7l-19" value="" style="edgeStyle=none;curved=1;rounded=0;orthogonalLoop=1;jettySize=auto;html=1;fontSize=12;startSize=8;endSize=8;" edge="1" parent="1" source="9hhr9WXu9GJ2DhduBU7l-18" target="9hhr9WXu9GJ2DhduBU7l-4">
          <mxGeometry relative="1" as="geometry" />
        </mxCell>
        <mxCell id="9hhr9WXu9GJ2DhduBU7l-18" value="System kart płatniczych" style="shape=umlActor;verticalLabelPosition=bottom;verticalAlign=top;html=1;" vertex="1" parent="1">
          <mxGeometry x="591" y="162" width="30" height="60" as="geometry" />
        </mxCell>
        <mxCell id="9hhr9WXu9GJ2DhduBU7l-21" value="" style="edgeStyle=none;curved=1;rounded=0;orthogonalLoop=1;jettySize=auto;html=1;fontSize=12;startSize=8;endSize=8;" edge="1" parent="1" source="9hhr9WXu9GJ2DhduBU7l-20" target="9hhr9WXu9GJ2DhduBU7l-4">
          <mxGeometry relative="1" as="geometry" />
        </mxCell>
        <mxCell id="9hhr9WXu9GJ2DhduBU7l-20" value="Pracownik obsługi klienta" style="shape=umlActor;verticalLabelPosition=bottom;verticalAlign=top;html=1;" vertex="1" parent="1">
          <mxGeometry x="177" y="-118" width="30" height="60" as="geometry" />
        </mxCell>
        <mxCell id="9hhr9WXu9GJ2DhduBU7l-23" value="" style="edgeStyle=none;curved=1;rounded=0;orthogonalLoop=1;jettySize=auto;html=1;fontSize=12;startSize=8;endSize=8;" edge="1" parent="1" source="9hhr9WXu9GJ2DhduBU7l-22" target="9hhr9WXu9GJ2DhduBU7l-4">
          <mxGeometry relative="1" as="geometry" />
        </mxCell>
        <mxCell id="9hhr9WXu9GJ2DhduBU7l-22" value="Operator systemu" style="shape=umlActor;verticalLabelPosition=bottom;verticalAlign=top;html=1;" vertex="1" parent="1">
          <mxGeometry x="407" y="-118" width="30" height="60" as="geometry" />
        </mxCell>
      </root>
    </mxGraphModel>
  </diagram>
</mxfile>
